<svg width="14" height="14" viewBox="0 0 14 15" fill="none" xmlns="http://www.w3.org/2000/svg">
<path id="Vector (Stroke)" fill-rule="evenodd" clip-rule="evenodd" d="M6.99995 0.592529C7.49426 0.592529 7.89498 0.993251 7.89498 1.48757V6.69789H13.105C13.5993 6.69789 14 7.09861 14 7.59293C14 8.08724 13.5993 8.48797 13.105 8.48797H7.89498V13.6975C7.89498 14.1918 7.49426 14.5925 6.99995 14.5925C6.50563 14.5925 6.10491 14.1918 6.10491 13.6975V8.48797H0.895036C0.400721 8.48797 0 8.08724 0 7.59293C0 7.09861 0.400721 6.69789 0.895036 6.69789H6.10491V1.48757C6.10491 0.993251 6.50563 0.592529 6.99995 0.592529Z" fill="white"/>
</svg>
