<svg width="20" height="20" viewBox="0 0 20 20" fill="none" xmlns="http://www.w3.org/2000/svg">
<g id="icons">
<path id="Vector" d="M2.50012 5.41667C2.50012 7.0275 3.80596 8.33333 5.41679 8.33333C7.02762 8.33333 8.33346 7.0275 8.33346 5.41667C8.33346 3.80584 7.02762 2.5 5.41679 2.5C3.80596 2.5 2.50012 3.80584 2.50012 5.41667Z" fill="white"/>
<path id="Vector_2" d="M11.6667 5.41667C11.6667 7.0275 12.9726 8.33333 14.5834 8.33333C16.1942 8.33333 17.5001 7.0275 17.5001 5.41667C17.5001 3.80584 16.1942 2.5 14.5834 2.5C12.9726 2.5 11.6667 3.80584 11.6667 5.41667Z" fill="white"/>
<path id="Vector_3" d="M11.6667 14.5834C11.6667 16.1942 12.9726 17.5001 14.5834 17.5001C16.1942 17.5001 17.5001 16.1942 17.5001 14.5834C17.5001 12.9726 16.1942 11.6667 14.5834 11.6667C12.9726 11.6667 11.6667 12.9726 11.6667 14.5834Z" fill="white"/>
<path id="Vector_4" d="M2.50012 14.5834C2.50012 16.1942 3.80596 17.5001 5.41679 17.5001C7.02762 17.5001 8.33346 16.1942 8.33346 14.5834C8.33346 12.9726 7.02762 11.6667 5.41679 11.6667C3.80596 11.6667 2.50012 12.9726 2.50012 14.5834Z" fill="white"/>
</g>
</svg>
