<svg width="24" height="25" viewBox="0 0 24 25" fill="none" xmlns="http://www.w3.org/2000/svg">
<g id="buttonIcon">
<path id="Label" d="M10.7408 15.2158L10.7321 14.7061C10.6969 14.2432 10.7262 13.8418 10.8199 13.502C10.9196 13.1562 11.0924 12.8486 11.3385 12.5791C11.5846 12.3096 11.9098 12.0576 12.3141 11.8232C12.6891 11.5947 12.985 11.3867 13.2018 11.1992C13.4186 11.0117 13.5709 10.8154 13.6588 10.6104C13.7467 10.4053 13.7906 10.165 13.7906 9.88965V9.88086C13.7906 9.59961 13.7203 9.35352 13.5797 9.14258C13.4391 8.92578 13.2428 8.75586 12.9908 8.63281C12.7448 8.50391 12.4547 8.43945 12.1207 8.43945C11.7867 8.43945 11.4908 8.50684 11.233 8.6416C10.9811 8.77637 10.7819 8.9668 10.6354 9.21289C10.4889 9.45312 10.4098 9.7373 10.3981 10.0654L10.3805 10.0742L7.99866 10.083V10.0654C8.01624 9.35059 8.19202 8.71777 8.526 8.16699C8.86584 7.61035 9.34924 7.17676 9.9762 6.86621C10.609 6.55566 11.3737 6.40039 12.2701 6.40039C13.108 6.40039 13.8405 6.54395 14.4674 6.83105C15.0944 7.11816 15.5807 7.5166 15.9264 8.02637C16.2721 8.53613 16.4449 9.12793 16.4449 9.80176V9.81055C16.4449 10.4727 16.2867 11.0439 15.9703 11.5244C15.6539 11.999 15.1881 12.418 14.5729 12.7812C14.1803 13.0039 13.8756 13.2119 13.6588 13.4053C13.442 13.5928 13.2897 13.792 13.2018 14.0029C13.1139 14.2139 13.0699 14.4629 13.0699 14.75V15.2158H10.7408ZM11.9977 19.4434C11.5114 19.4434 11.1246 19.3145 10.8375 19.0566C10.5504 18.793 10.4069 18.4355 10.4069 17.9844C10.4069 17.5273 10.5504 17.167 10.8375 16.9033C11.1246 16.6396 11.5114 16.5078 11.9977 16.5078C12.4899 16.5078 12.8766 16.6396 13.1578 16.9033C13.4449 17.167 13.5885 17.5273 13.5885 17.9844C13.5885 18.4355 13.4449 18.793 13.1578 19.0566C12.8766 19.3145 12.4899 19.4434 11.9977 19.4434Z" fill="white"/>
</g>
</svg>
