<svg width="18" height="18" viewBox="0 0 18 18" fill="none" xmlns="http://www.w3.org/2000/svg">
<g id="Group 1000004613">
<path id="Rectangle 8 (Stroke)" fill-rule="evenodd" clip-rule="evenodd" d="M9.34479 1.06905H3.82755C2.304 1.06905 1.06893 2.30413 1.06893 3.82767V9.34491C1.06893 10.8685 2.304 12.1035 3.82755 12.1035H9.34479C10.8683 12.1035 12.1034 10.8685 12.1034 9.34491V3.82767C12.1034 2.30413 10.8683 1.06905 9.34479 1.06905ZM3.82755 0.379395C1.92312 0.379395 0.379272 1.92324 0.379272 3.82767V9.34491C0.379272 11.2493 1.92312 12.7932 3.82755 12.7932H9.34479C11.2492 12.7932 12.7931 11.2493 12.7931 9.34491V3.82767C12.7931 1.92324 11.2492 0.379395 9.34479 0.379395H3.82755Z" fill="#9AE473"/>
<path id="Rectangle 9 (Stroke)" fill-rule="evenodd" clip-rule="evenodd" d="M14.1724 5.89669H8.65518C7.13164 5.89669 5.89656 7.13176 5.89656 8.65531V14.1725C5.89656 15.6961 7.13164 16.9312 8.65518 16.9312H14.1724C15.696 16.9312 16.931 15.6961 16.931 14.1725V8.65531C16.931 7.13176 15.696 5.89669 14.1724 5.89669ZM8.65518 5.20703C6.75076 5.20703 5.20691 6.75088 5.20691 8.65531V14.1725C5.20691 16.077 6.75076 17.6208 8.65518 17.6208H14.1724C16.0769 17.6208 17.6207 16.077 17.6207 14.1725V8.65531C17.6207 6.75088 16.0769 5.20703 14.1724 5.20703H8.65518Z" fill="#9AE473"/>
</g>
</svg>
