<svg width="14" height="14" viewBox="0 0 14 14" fill="none" xmlns="http://www.w3.org/2000/svg">
<g id="Group 1000004613">
<path id="Rectangle 8 (Stroke)" fill-rule="evenodd" clip-rule="evenodd" d="M7.27587 0.65524H2.86208C1.64324 0.65524 0.655179 1.6433 0.655179 2.86214V7.27593C0.655179 8.49477 1.64324 9.48283 2.86208 9.48283H7.27587C8.4947 9.48283 9.48277 8.49477 9.48277 7.27593V2.86214C9.48277 1.6433 8.4947 0.65524 7.27587 0.65524ZM2.86208 0.103516C1.33853 0.103516 0.103455 1.33859 0.103455 2.86214V7.27593C0.103455 8.79947 1.33853 10.0346 2.86208 10.0346H7.27587C8.79941 10.0346 10.0345 8.79947 10.0345 7.27593V2.86214C10.0345 1.33859 8.79941 0.103516 7.27587 0.103516H2.86208Z" fill="white"/>
<path id="Rectangle 9 (Stroke)" fill-rule="evenodd" clip-rule="evenodd" d="M11.1379 4.5173H6.72415C5.50532 4.5173 4.51725 5.50536 4.51725 6.7242V11.138C4.51725 12.3568 5.50532 13.3449 6.72415 13.3449H11.1379C12.3568 13.3449 13.3448 12.3568 13.3448 11.138V6.7242C13.3448 5.50536 12.3568 4.5173 11.1379 4.5173ZM6.72415 3.96558C5.20061 3.96558 3.96553 5.20065 3.96553 6.7242V11.138C3.96553 12.6615 5.20061 13.8966 6.72415 13.8966H11.1379C12.6615 13.8966 13.8966 12.6615 13.8966 11.138V6.7242C13.8966 5.20065 12.6615 3.96558 11.1379 3.96558H6.72415Z" fill="white"/>
</g>
</svg>
