<svg width="30" height="31" viewBox="0 0 60 61" fill="none" xmlns="http://www.w3.org/2000/svg">
<path d="M14.6642 48.7606C11.4542 48.7606 8.84424 46.1506 8.84424 42.9406C8.84424 39.7306 11.4542 37.1206 14.6642 37.1206C17.8742 37.1206 20.4842 39.7306 20.4842 42.9406C20.4842 46.1506 17.8742 48.7606 14.6642 48.7606ZM14.6642 38.3266C12.1202 38.3266 10.0442 40.3966 10.0442 42.9466C10.0442 45.4966 12.1142 47.5666 14.6642 47.5666C17.2142 47.5666 19.2842 45.4966 19.2842 42.9466C19.2842 40.3966 17.2142 38.3266 14.6642 38.3266Z" fill="#9AE473"/>
<path d="M14.6642 46.3066C12.8102 46.3066 11.3042 44.8006 11.3042 42.9406C11.3042 41.0806 12.8102 39.5806 14.6642 39.5806C16.5182 39.5806 18.0242 41.0866 18.0242 42.9406C18.0242 44.7946 16.5182 46.3066 14.6642 46.3066ZM14.6642 40.7806C13.4702 40.7806 12.5042 41.7526 12.5042 42.9406C12.5042 44.1286 13.4762 45.1066 14.6642 45.1066C15.8522 45.1066 16.8242 44.1346 16.8242 42.9406C16.8242 41.7466 15.8522 40.7806 14.6642 40.7806Z" fill="#9AE473"/>
<path d="M45.2639 48.7606C42.0539 48.7606 39.4438 46.1506 39.4438 42.9406C39.4438 39.7306 42.0539 37.1206 45.2639 37.1206C48.4739 37.1206 51.0838 39.7306 51.0838 42.9406C51.0838 46.1506 48.4739 48.7606 45.2639 48.7606ZM45.2639 38.3266C42.7199 38.3266 40.6438 40.3966 40.6438 42.9466C40.6438 45.4966 42.7139 47.5666 45.2639 47.5666C47.8139 47.5666 49.8838 45.4966 49.8838 42.9466C49.8838 40.3966 47.8139 38.3266 45.2639 38.3266Z" fill="#9AE473"/>
<path d="M45.2638 46.3066C43.4098 46.3066 41.9038 44.8006 41.9038 42.9406C41.9038 41.0806 43.4098 39.5806 45.2638 39.5806C47.1178 39.5806 48.6238 41.0866 48.6238 42.9406C48.6238 44.7946 47.1178 46.3066 45.2638 46.3066ZM45.2638 40.7806C44.0698 40.7806 43.1038 41.7526 43.1038 42.9406C43.1038 44.1286 44.0758 45.1066 45.2638 45.1066C46.4518 45.1066 47.4238 44.1346 47.4238 42.9406C47.4238 41.7466 46.4518 40.7806 45.2638 40.7806Z" fill="#9AE473"/>
<path d="M39.7741 43.5046H19.9741V44.7046H39.7741V43.5046Z" fill="#9AE473"/>
<path d="M9.17393 44.7045H5.57393C4.58393 44.7045 3.77393 43.8945 3.77393 42.9045V32.7045C3.77393 31.9665 3.98993 30.8505 4.27193 30.1665L8.08793 20.7705C8.42393 19.9365 9.39593 19.2825 10.2959 19.2825H22.9739V20.4825H10.2959C9.88193 20.4825 9.35993 20.8365 9.19793 21.2205L5.38193 30.6165C5.15993 31.1625 4.97393 32.1165 4.97393 32.7045V42.9045C4.97393 43.2345 5.24393 43.5045 5.57393 43.5045H9.17393V44.7045Z" fill="#9AE473"/>
<path d="M11.574 32.7045H4.37402V31.5045H11.574C12.102 31.5045 12.936 31.2165 13.35 30.8925L16.854 28.1685C17.226 27.8745 17.568 27.1785 17.568 26.7045V20.1045H18.768V26.7045C18.768 27.5565 18.264 28.5945 17.592 29.1165L14.088 31.8405C13.464 32.3265 12.36 32.7045 11.574 32.7045Z" fill="#9AE473"/>
<path d="M6.77402 36.9045H4.37402V38.1045H6.77402V36.9045Z" fill="#9AE473"/>
<path d="M40.3741 40.5046H19.9741V41.7046H40.3741V40.5046Z" fill="#9AE473"/>
<path d="M55.9741 40.5046H49.9741V41.7046H55.9741V40.5046Z" fill="#9AE473"/>
<path d="M55.9741 36.9045H52.9741V38.1045H55.9741V36.9045Z" fill="#9AE473"/>
<path d="M55.9741 33.9045H52.9741V35.1045H55.9741V33.9045Z" fill="#9AE473"/>
<path d="M54.7739 44.7044H50.4839V43.5044H54.7739C55.1039 43.5044 55.3739 43.2344 55.3739 42.9044V17.1044C55.3739 16.9484 55.3139 16.7984 55.1999 16.6844C55.0859 16.5704 54.9359 16.5104 54.7799 16.5104L24.1799 16.5704C23.8499 16.5704 23.5799 16.8404 23.5799 17.1704V41.1104H22.3799V17.1644C22.3799 16.1744 23.1899 15.3644 24.1799 15.3644L54.7799 15.3044C55.2599 15.3044 55.7099 15.4904 56.0519 15.8324C56.3939 16.1744 56.5799 16.6244 56.5799 17.1044V42.9044C56.5799 43.8944 55.7699 44.7044 54.7799 44.7044H54.7739Z" fill="#9AE473"/>
</svg>
