<svg width="230" height="84" viewBox="0 0 230 84" fill="none" xmlns="http://www.w3.org/2000/svg">
<path d="M224.336 73.5924L215.363 62.6863V73.5924H211.083V52.668H215.363V62.3693L223.353 52.668H228.457L220.436 62.5278L229.503 73.5924H224.336Z" fill="white"/>
<path d="M196.3 73.9729C194.271 73.9729 192.411 73.4973 190.72 72.5462C189.029 71.5951 187.687 70.2953 186.693 68.6467C185.7 66.9769 185.203 65.1381 185.203 63.1302C185.203 61.1223 185.7 59.2941 186.693 57.6455C187.687 55.9758 189.029 54.6654 190.72 53.7143C192.411 52.7632 194.271 52.2876 196.3 52.2876C198.329 52.2876 200.189 52.7632 201.879 53.7143C203.591 54.6654 204.944 55.9758 205.938 57.6455C206.952 59.2941 207.459 61.1223 207.459 63.1302C207.459 65.1381 206.952 66.9769 205.938 68.6467C204.944 70.2953 203.591 71.5951 201.879 72.5462C200.189 73.4973 198.329 73.9729 196.3 73.9729ZM196.331 70.0099C197.599 70.0099 198.741 69.7246 199.755 69.1539C200.791 68.5621 201.594 67.7484 202.165 66.7127C202.757 65.656 203.053 64.4618 203.053 63.1302C203.053 61.8198 202.757 60.6468 202.165 59.6111C201.594 58.5543 200.791 57.7301 199.755 57.1383C198.741 56.5464 197.599 56.2505 196.331 56.2505C195.042 56.2505 193.89 56.5464 192.876 57.1383C191.861 57.7089 191.058 58.5226 190.466 59.5794C189.896 60.6151 189.61 61.7987 189.61 63.1302C189.61 64.4618 189.896 65.656 190.466 66.7127C191.058 67.7484 191.861 68.5621 192.876 69.1539C193.89 69.7246 195.042 70.0099 196.331 70.0099Z" fill="white"/>
<path d="M183.711 69.7245V78.0626H179.432V73.5924H166.401V78.0626H162.121V69.7245H163.802C164.71 68.9848 165.366 67.5158 165.767 65.3177C166.169 63.0985 166.37 60.0338 166.37 56.1237V52.668H180.922V69.7245H183.711ZM170.396 56.5358C170.354 59.7696 170.174 62.475 169.857 64.6519C169.561 66.8078 169.096 68.4986 168.462 69.7245H176.642V56.5358H170.396Z" fill="white"/>
<path d="M144.874 73.9728C143.331 73.9728 141.915 73.6135 140.625 72.8948C139.357 72.1551 138.343 71.1617 137.582 69.9147C136.842 68.6466 136.472 67.2516 136.472 65.7298C136.472 64.2081 136.842 62.8237 137.582 61.5767C138.343 60.3296 139.357 59.3468 140.625 58.6282C141.915 57.9096 143.331 57.5503 144.874 57.5503C146.417 57.5503 147.769 57.899 148.932 58.5965C150.094 59.2729 151.014 60.2134 151.69 61.4181L148.71 63.7325C148.224 63.0139 147.674 62.4538 147.061 62.0522C146.469 61.6506 145.761 61.4498 144.937 61.4498C143.732 61.4498 142.739 61.862 141.957 62.6863C141.196 63.4894 140.816 64.504 140.816 65.7298C140.816 66.9768 141.196 68.0125 141.957 68.8368C142.739 69.6399 143.732 70.0415 144.937 70.0415C145.74 70.0415 146.438 69.8513 147.029 69.4709C147.642 69.0693 148.203 68.5092 148.71 67.7906L151.69 70.0732C151.014 71.278 150.084 72.2291 148.9 72.9265C147.738 73.624 146.395 73.9728 144.874 73.9728Z" fill="white"/>
<path d="M133.025 57.5503V73.5923H128.745V65.0958L119.995 73.9728H118.6V57.8991H122.848V66.459L131.63 57.5503H133.025ZM126.177 55.4896C124.55 55.4896 123.229 54.9823 122.214 53.9678C121.2 52.9322 120.692 51.6006 120.692 49.9732V49.0854H124.116V49.9414C124.116 50.7446 124.296 51.3681 124.655 51.812C125.015 52.2347 125.522 52.446 126.177 52.446C126.832 52.446 127.339 52.2347 127.699 51.812C128.058 51.3681 128.238 50.7446 128.238 49.9414V49.0854H131.63V49.9732C131.63 51.6006 131.123 52.9322 130.108 53.9678C129.094 54.9823 127.783 55.4896 126.177 55.4896Z" fill="white"/>
<path d="M114.88 67.1882H103.879C104.132 68.1816 104.64 68.953 105.401 69.5026C106.183 70.031 107.144 70.2951 108.286 70.2951C109.829 70.2951 111.287 69.7668 112.661 68.71L114.436 71.6267C112.576 73.1907 110.484 73.9728 108.159 73.9728C106.531 73.9728 105.062 73.6135 103.752 72.8948C102.442 72.1762 101.417 71.1934 100.677 69.9464C99.937 68.6783 99.5671 67.2833 99.5671 65.7615C99.5671 64.2398 99.9264 62.8554 100.645 61.6084C101.364 60.3402 102.346 59.3468 103.593 58.6282C104.862 57.9096 106.257 57.5503 107.778 57.5503C109.216 57.5503 110.494 57.8779 111.615 58.5331C112.735 59.1672 113.601 60.0443 114.214 61.1645C114.848 62.2636 115.165 63.4894 115.165 64.8421C115.165 65.603 115.07 66.385 114.88 67.1882ZM107.62 61.006C106.711 61.006 105.918 61.2913 105.242 61.862C104.566 62.4326 104.111 63.2041 103.879 64.1763H111.012C110.991 63.2041 110.653 62.4326 109.998 61.862C109.342 61.2913 108.55 61.006 107.62 61.006Z" fill="white"/>
<path d="M82.2258 52.668H90.0883C91.5467 52.668 92.8465 52.9533 93.9879 53.524C95.1292 54.0735 96.0169 54.8661 96.651 55.9017C97.3062 56.9163 97.6338 58.0893 97.6338 59.4208C97.6338 60.7524 97.3062 61.936 96.651 62.9716C96.0169 63.9862 95.1292 64.7787 93.9879 65.3494C92.8465 65.9201 91.5467 66.2054 90.0883 66.2054H86.5058V73.5924H82.2258V52.668ZM90.0883 62.4644C91.0817 62.4644 91.8532 62.1896 92.4027 61.6401C92.9734 61.0694 93.2587 60.3297 93.2587 59.4208C93.2587 58.5331 92.9734 57.8145 92.4027 57.265C91.832 56.7155 91.0606 56.4407 90.0883 56.4407H86.5058V62.4644H90.0883Z" fill="white"/>
<path d="M78.8099 69.978V78.0624H74.7201V73.5922H64.0043V78.0624H59.9146V69.978H61.5948C62.2289 69.3651 62.6833 68.414 62.9581 67.1247C63.254 65.8354 63.4442 64.06 63.5288 61.7985L63.6556 57.8989H76.2102V69.978H78.8099ZM65.9699 69.978H71.9619V61.5131H67.46L67.4283 62.4325C67.3438 65.7086 66.8576 68.2237 65.9699 69.978Z" fill="white"/>
<path d="M58.6246 67.1882H47.6235C47.8771 68.1816 48.3843 68.953 49.1452 69.5026C49.9273 70.031 50.8889 70.2951 52.0303 70.2951C53.5732 70.2951 55.0315 69.7668 56.4054 68.71L58.1808 71.6267C56.3208 73.1907 54.2284 73.9728 51.9034 73.9728C50.276 73.9728 48.8071 73.6135 47.4966 72.8948C46.1862 72.1762 45.1611 71.1934 44.4214 69.9464C43.6816 68.6783 43.3118 67.2833 43.3118 65.7615C43.3118 64.2398 43.6711 62.8554 44.3897 61.6084C45.1083 60.3402 46.0911 59.3468 47.3381 58.6282C48.6063 57.9096 50.0012 57.5503 51.523 57.5503C52.9602 57.5503 54.2389 57.8779 55.3591 58.5331C56.4793 59.1672 57.3459 60.0443 57.9588 61.1645C58.5929 62.2636 58.9099 63.4894 58.9099 64.8421C58.9099 65.603 58.8148 66.385 58.6246 67.1882ZM51.3645 61.006C50.4556 61.006 49.6631 61.2913 48.9867 61.862C48.3104 62.4326 47.856 63.2041 47.6235 64.1763H54.7568C54.7356 63.2041 54.3975 62.4326 53.7423 61.862C53.087 61.2913 52.2945 61.006 51.3645 61.006Z" fill="white"/>
<path d="M33.2331 57.5503C34.6915 57.5503 35.9913 57.9096 37.1327 58.6282C38.2951 59.3257 39.204 60.2979 39.8592 61.5449C40.5144 62.7708 40.842 64.1658 40.842 65.7298C40.842 67.2939 40.5144 68.6994 39.8592 69.9464C39.204 71.1934 38.2951 72.1762 37.1327 72.8948C35.9913 73.6135 34.6915 73.9728 33.2331 73.9728C32.282 73.9728 31.4049 73.8142 30.6017 73.4972C29.7986 73.159 29.1116 72.6835 28.541 72.0705V79.299H24.261V57.899H28.1922V59.8647C28.7206 59.1249 29.4181 58.5542 30.2847 58.1527C31.1724 57.7511 32.1552 57.5503 33.2331 57.5503ZM32.4405 70.0732C33.5818 70.0732 34.5435 69.6822 35.3255 68.9002C36.1076 68.097 36.4986 67.0508 36.4986 65.7615C36.4986 64.4511 36.1076 63.4049 35.3255 62.6229C34.5647 61.8197 33.603 61.4181 32.4405 61.4181C31.3626 61.4181 30.4326 61.788 29.6506 62.5278C28.8686 63.2464 28.4776 64.3137 28.4776 65.7298C28.4776 67.1248 28.858 68.2027 29.6189 68.9636C30.4009 69.7033 31.3415 70.0732 32.4405 70.0732Z" fill="white"/>
<path d="M2.40942 52.668H19.9098V73.5924H15.6298V56.5358H6.68941V73.5924H2.40942V52.668Z" fill="white"/>
<rect x="1.32104" y="12.5493" width="37.648" height="21.7962" rx="3.30246" fill="url(#paint0_linear_54619_98)"/>
<rect x="44.9133" y="5.94434" width="42.932" height="28.4012" rx="3.30246" fill="url(#paint1_linear_54619_98)"/>
<rect x="95.1108" width="55.4813" height="34.3456" rx="3.30246" fill="url(#paint2_linear_54619_98)"/>
<defs>
<linearGradient id="paint0_linear_54619_98" x1="20.1451" y1="12.5493" x2="20.1451" y2="34.3456" gradientUnits="userSpaceOnUse">
<stop stop-color="#FF6363"/>
<stop offset="1" stop-color="#FF0000"/>
</linearGradient>
<linearGradient id="paint1_linear_54619_98" x1="66.3793" y1="5.94434" x2="66.3793" y2="34.3455" gradientUnits="userSpaceOnUse">
<stop stop-color="#FFEF63"/>
<stop offset="0.976744" stop-color="#FFC700"/>
</linearGradient>
<linearGradient id="paint2_linear_54619_98" x1="122.851" y1="0" x2="122.851" y2="34.3456" gradientUnits="userSpaceOnUse">
<stop stop-color="#9EFF00"/>
<stop offset="1" stop-color="#289900"/>
</linearGradient>
</defs>
</svg>
