<svg width="123" height="17" viewBox="0 0 123 17" fill="none" xmlns="http://www.w3.org/2000/svg">
<g id="&#208;&#159;&#209;&#128;&#208;&#181;&#208;&#180;&#208;&#160;&#208;&#181;&#208;&#185;&#209;&#129; &#208;&#148;&#208;&#158;&#208;&#154;">
<path id="Vector" d="M119.946 13.6167L115.109 7.74567V13.6167H112.802V2.35254H115.109V7.575L119.416 2.35254H122.168L117.844 7.66034L122.732 13.6167H119.946Z" fill="white"/>
<path id="Vector_2" d="M104.831 13.8212C103.737 13.8212 102.735 13.5652 101.823 13.0532C100.911 12.5412 100.188 11.8414 99.6522 10.954C99.1167 10.0551 98.8489 9.06524 98.8489 7.98433C98.8489 6.90343 99.1167 5.91924 99.6522 5.03176C100.188 4.13291 100.911 3.42748 101.823 2.91547C102.735 2.40346 103.737 2.14746 104.831 2.14746C105.925 2.14746 106.928 2.40346 107.839 2.91547C108.762 3.42748 109.492 4.13291 110.027 5.03176C110.574 5.91924 110.848 6.90343 110.848 7.98433C110.848 9.06524 110.574 10.0551 110.027 10.954C109.492 11.8414 108.762 12.5412 107.839 13.0532C106.928 13.5652 105.925 13.8212 104.831 13.8212ZM104.848 11.6878C105.532 11.6878 106.147 11.5342 106.694 11.227C107.253 10.9085 107.686 10.4704 107.993 9.91289C108.312 9.34399 108.472 8.70114 108.472 7.98433C108.472 7.2789 108.312 6.64743 107.993 6.08991C107.686 5.52101 107.253 5.07728 106.694 4.75869C106.147 4.44011 105.532 4.28082 104.848 4.28082C104.153 4.28082 103.532 4.44011 102.985 4.75869C102.438 5.0659 102.005 5.50395 101.686 6.07284C101.379 6.63036 101.225 7.26752 101.225 7.98433C101.225 8.70114 101.379 9.34399 101.686 9.91289C102.005 10.4704 102.438 10.9085 102.985 11.227C103.532 11.5342 104.153 11.6878 104.848 11.6878Z" fill="white"/>
<path id="Vector_3" d="M98.0446 11.5345V16.0231H95.7371V13.6167H88.7121V16.0231H86.4047V11.5345H87.3106C87.8005 11.1363 88.1538 10.3455 88.3703 9.16222C88.5868 7.96754 88.695 6.31774 88.695 4.21283V2.35254H96.5404V11.5345H98.0446ZM90.8658 4.4347C90.843 6.17552 90.7461 7.63189 90.5752 8.80382C90.4157 9.96437 90.165 10.8746 89.8231 11.5345H94.233V4.4347H90.8658Z" fill="white"/>
<path id="Vector_4" d="M77.1058 13.8211C76.2739 13.8211 75.5105 13.6277 74.8154 13.2408C74.1317 12.8426 73.5847 12.3078 73.1745 11.6366C72.7757 10.9539 72.5763 10.2029 72.5763 9.38372C72.5763 8.56451 72.7757 7.81926 73.1745 7.14796C73.5847 6.47667 74.1317 5.94759 74.8154 5.56074C75.5105 5.17389 76.2739 4.98047 77.1058 4.98047C77.9376 4.98047 78.6669 5.1682 79.2936 5.54368C79.9203 5.90777 80.416 6.41409 80.7806 7.06263L79.174 8.30851C78.9119 7.92166 78.6156 7.62015 78.2852 7.40397C77.9661 7.18779 77.5844 7.0797 77.14 7.0797C76.4905 7.0797 75.9549 7.30156 75.5333 7.7453C75.1231 8.17766 74.918 8.7238 74.918 9.38372C74.918 10.055 75.1231 10.6125 75.5333 11.0563C75.9549 11.4886 76.4905 11.7048 77.14 11.7048C77.573 11.7048 77.949 11.6024 78.2681 11.3976C78.5985 11.1814 78.9005 10.8799 79.174 10.4931L80.7806 11.7219C80.416 12.3704 79.9146 12.8824 79.2765 13.2579C78.6498 13.6334 77.9262 13.8211 77.1058 13.8211Z" fill="white"/>
<path id="Vector_5" d="M70.718 4.98068V13.6165H68.4105V9.0426L63.693 13.8213H62.9409V5.16842H65.2313V9.77648L69.9659 4.98068H70.718ZM67.026 3.87134C66.1486 3.87134 65.4364 3.59827 64.8894 3.05213C64.3425 2.49461 64.069 1.7778 64.069 0.901701V0.423828H65.915V0.884634C65.915 1.317 66.0118 1.65264 66.2056 1.89158C66.3993 2.11914 66.6728 2.23292 67.026 2.23292C67.3792 2.23292 67.6527 2.11914 67.8464 1.89158C68.0401 1.65264 68.137 1.317 68.137 0.884634V0.423828H69.9659V0.901701C69.9659 1.7778 69.6924 2.49461 69.1455 3.05213C68.5985 3.59827 67.892 3.87134 67.026 3.87134Z" fill="white"/>
<path id="Vector_6" d="M60.9354 10.1688H55.0044C55.1411 10.7036 55.4146 11.1189 55.8248 11.4147C56.2464 11.6991 56.7649 11.8414 57.3802 11.8414C58.212 11.8414 58.9983 11.5569 59.739 10.988L60.6961 12.5582C59.6934 13.4001 58.5653 13.8211 57.3118 13.8211C56.4344 13.8211 55.6425 13.6277 54.936 13.2408C54.2295 12.854 53.6769 12.3249 53.278 11.6536C52.8792 10.9709 52.6798 10.22 52.6798 9.40079C52.6798 8.58158 52.8735 7.83633 53.2609 7.16503C53.6484 6.48235 54.1782 5.94759 54.8505 5.56074C55.5342 5.17389 56.2863 4.98047 57.1067 4.98047C57.8816 4.98047 58.571 5.15683 59.1749 5.50954C59.7788 5.85088 60.246 6.32306 60.5765 6.92609C60.9183 7.51775 61.0893 8.17766 61.0893 8.90585C61.0893 9.31546 61.038 9.73644 60.9354 10.1688ZM57.0213 6.84076C56.5313 6.84076 56.104 6.99436 55.7393 7.30156C55.3747 7.60877 55.1297 8.02406 55.0044 8.54745H58.8502C58.8388 8.02406 58.6564 7.60877 58.3032 7.30156C57.95 6.99436 57.5227 6.84076 57.0213 6.84076Z" fill="white"/>
<path id="Vector_7" d="M43.3304 2.35254H47.5694C48.3556 2.35254 49.0564 2.50614 49.6717 2.81335C50.287 3.10917 50.7656 3.53584 51.1075 4.09336C51.4607 4.6395 51.6373 5.27097 51.6373 5.98778C51.6373 6.70459 51.4607 7.34176 51.1075 7.89928C50.7656 8.44542 50.287 8.87209 49.6717 9.17929C49.0564 9.48649 48.3556 9.6401 47.5694 9.6401H45.6379V13.6167H43.3304V2.35254ZM47.5694 7.62621C48.1049 7.62621 48.5208 7.47829 48.8171 7.18247C49.1248 6.87526 49.2786 6.47703 49.2786 5.98778C49.2786 5.50991 49.1248 5.12306 48.8171 4.82724C48.5094 4.53141 48.0935 4.3835 47.5694 4.3835H45.6379V7.62621H47.5694Z" fill="white"/>
<path id="Vector_8" d="M41.4889 11.6709V16.023H39.284V13.6166H33.5068V16.023H31.3019V11.6709H32.2078C32.5496 11.341 32.7946 10.829 32.9427 10.1349C33.1023 9.44087 33.2048 8.48512 33.2504 7.26768L33.3188 5.16846H40.0874V11.6709H41.4889ZM34.5665 11.6709H37.797V7.11408H35.3699L35.3528 7.60902C35.3072 9.3726 35.0451 10.7266 34.5665 11.6709Z" fill="white"/>
<path id="Vector_9" d="M30.6064 10.1688H24.6754C24.8121 10.7036 25.0856 11.1189 25.4958 11.4147C25.9174 11.6991 26.4359 11.8414 27.0512 11.8414C27.8831 11.8414 28.6693 11.5569 29.41 10.988L30.3672 12.5582C29.3644 13.4001 28.2363 13.8211 26.9829 13.8211C26.1055 13.8211 25.3135 13.6277 24.607 13.2408C23.9005 12.854 23.3479 12.3249 22.9491 11.6536C22.5502 10.9709 22.3508 10.22 22.3508 9.40079C22.3508 8.58158 22.5445 7.83633 22.932 7.16503C23.3194 6.48235 23.8493 5.94759 24.5216 5.56074C25.2053 5.17389 25.9573 4.98047 26.7778 4.98047C27.5526 4.98047 28.242 5.15683 28.8459 5.50954C29.4499 5.85088 29.9171 6.32306 30.2475 6.92609C30.5894 7.51775 30.7603 8.17766 30.7603 8.90585C30.7603 9.31546 30.709 9.73644 30.6064 10.1688ZM26.6923 6.84076C26.2023 6.84076 25.775 6.99436 25.4104 7.30156C25.0457 7.60877 24.8007 8.02406 24.6754 8.54745H28.5212C28.5098 8.02406 28.3275 7.60877 27.9742 7.30156C27.621 6.99436 27.1937 6.84076 26.6923 6.84076Z" fill="white"/>
<path id="Vector_10" d="M16.917 4.98047C17.7032 4.98047 18.404 5.17389 19.0193 5.56074C19.6461 5.93621 20.136 6.4596 20.4893 7.13089C20.8425 7.79081 21.0192 8.54176 21.0192 9.38372C21.0192 10.2257 20.8425 10.9823 20.4893 11.6536C20.136 12.3249 19.6461 12.854 19.0193 13.2408C18.404 13.6277 17.7032 13.8211 16.917 13.8211C16.4042 13.8211 15.9313 13.7358 15.4983 13.5651C15.0653 13.3831 14.695 13.1271 14.3873 12.7971V16.6883H12.0798V5.1682H14.1993V6.22635C14.4842 5.82812 14.8602 5.52092 15.3274 5.30474C15.806 5.08856 16.3358 4.98047 16.917 4.98047ZM16.4897 11.7219C17.105 11.7219 17.6235 11.5114 18.0451 11.0904C18.4667 10.6581 18.6775 10.0948 18.6775 9.40079C18.6775 8.69536 18.4667 8.13215 18.0451 7.71117C17.6349 7.27881 17.1164 7.06263 16.4897 7.06263C15.9085 7.06263 15.4072 7.26174 14.9855 7.65997C14.5639 8.04682 14.3531 8.6214 14.3531 9.38372C14.3531 10.1347 14.5582 10.7149 14.9684 11.1245C15.3901 11.5228 15.8971 11.7219 16.4897 11.7219Z" fill="white"/>
<path id="Vector_11" d="M0.299072 2.35254H9.73407V13.6167H7.4266V4.4347H2.60654V13.6167H0.299072V2.35254Z" fill="white"/>
</g>
</svg>
